<svg viewBox="0 0 760 340" role="img" aria-label="IFC, COBie, 3D Tiles, USD가 파이프라인 S1에서 S5의 어느 이음매에 놓이는지 보여주는 층위도">
  <rect x="160" y="26" width="112" height="22" rx="2" fill="var(--sunk)"></rect>
  <rect x="276" y="26" width="112" height="22" rx="2" fill="var(--sunk)"></rect>
  <rect x="392" y="26" width="112" height="22" rx="2" fill="var(--sunk)"></rect>
  <rect x="508" y="26" width="112" height="22" rx="2" fill="var(--sunk)"></rect>
  <rect x="624" y="26" width="112" height="22" rx="2" fill="var(--sunk)"></rect>
  <text class="t-tick" x="216" y="41" text-anchor="middle">S1 캡처</text>
  <text class="t-tick" x="332" y="41" text-anchor="middle">S2 정합·처리</text>
  <text class="t-tick" x="448" y="41" text-anchor="middle">S3 의미화</text>
  <text class="t-tick" x="564" y="41" text-anchor="middle">S4 배포·활용</text>
  <text class="t-tick" x="680" y="41" text-anchor="middle">S5 운영·갱신</text>
  <line x1="274" y1="54" x2="274" y2="290" stroke="var(--rule-soft)"></line>
  <line x1="390" y1="54" x2="390" y2="290" stroke="var(--rule-soft)"></line>
  <line x1="506" y1="54" x2="506" y2="290" stroke="var(--rule-soft)"></line>
  <line x1="622" y1="54" x2="622" y2="290" stroke="var(--rule-soft)"></line>
  <text class="t-hd" x="20" y="82">USD</text>
  <text class="t-tick" x="20" y="100">장면 조립 · AOUSD</text>
  <rect x="160" y="66" width="576" height="40" rx="3" fill="var(--sunk)" stroke="var(--rule)"></rect>
  <text class="t-lab" x="448" y="91" text-anchor="middle">여러 도구 사이 장면 교환 · Core Spec 1.0 비준(2026.3)</text>
  <text class="t-hd" x="20" y="140">3D Tiles</text>
  <text class="t-tick" x="20" y="158">전송 · OGC</text>
  <rect x="508" y="124" width="112" height="40" rx="3" fill="var(--far-soft)" stroke="var(--far)"></rect>
  <text class="t-lab" x="564" y="149" text-anchor="middle">스트리밍</text>
  <text class="t-tick" x="500" y="149" text-anchor="end">점군·사진측량·BIM을 한 규격으로</text>
  <text class="t-hd" x="20" y="198">IFC</text>
  <text class="t-tick" x="20" y="216">의미 · buildingSMART</text>
  <rect x="306" y="182" width="168" height="40" rx="3" fill="var(--near-soft)" stroke="var(--near)"></rect>
  <text class="t-lab" x="390" y="207" text-anchor="middle">점군 → 객체 모델</text>
  <text class="t-hd" x="20" y="256">COBie</text>
  <text class="t-tick" x="20" y="274">인수인계 · buildingSMART</text>
  <rect x="448" y="240" width="288" height="40" rx="3" fill="var(--near-soft)" stroke="var(--near)" stroke-dasharray="5 3"></rect>
  <text class="t-lab" x="592" y="265" text-anchor="middle">준공 시점에 운영 정보 넘기기</text>
  <text class="t-tick" x="160" y="312">COBie 전달 형식: 스프레드시트 · STEP Part 21(IFC) · ifcXML</text>
  <text class="t-tick" x="160" y="330">셋은 경쟁 관계가 아니라 층위가 다르다: 의미(IFC) · 전송(3D Tiles) · 장면 조립(USD)</text>
</svg>
